<mxfile host="Electron" agent="Mozilla/5.0 (Windows NT 10.0; Win64; x64) AppleWebKit/537.36 (KHTML, like Gecko) draw.io/26.2.2 Chrome/134.0.6998.178 Electron/35.1.2 Safari/537.36" version="26.2.2">
  <diagram name="Page-1" id="2YBvvXClWsGukQMizWep">
    <mxGraphModel dx="2341" dy="2063" grid="1" gridSize="10" guides="1" tooltips="1" connect="1" arrows="1" fold="1" page="1" pageScale="1" pageWidth="850" pageHeight="1100" math="0" shadow="0">
      <root>
        <mxCell id="0" />
        <mxCell id="1" parent="0" />
        <mxCell id="aM9ryv3xv72pqoxQDRHE-1" value="Client" style="shape=umlLifeline;perimeter=lifelinePerimeter;whiteSpace=wrap;html=1;container=0;dropTarget=0;collapsible=0;recursiveResize=0;outlineConnect=0;portConstraint=eastwest;newEdgeStyle={&quot;edgeStyle&quot;:&quot;elbowEdgeStyle&quot;,&quot;elbow&quot;:&quot;vertical&quot;,&quot;curved&quot;:0,&quot;rounded&quot;:0};labelBackgroundColor=none;fillColor=#FAE5C7;strokeColor=#0F8B8D;fontColor=#000066;" parent="1" vertex="1">
          <mxGeometry x="40" y="40" width="100" height="1620" as="geometry" />
        </mxCell>
        <mxCell id="aM9ryv3xv72pqoxQDRHE-2" value="" style="html=1;points=[];perimeter=orthogonalPerimeter;outlineConnect=0;targetShapes=umlLifeline;portConstraint=eastwest;newEdgeStyle={&quot;edgeStyle&quot;:&quot;elbowEdgeStyle&quot;,&quot;elbow&quot;:&quot;vertical&quot;,&quot;curved&quot;:0,&quot;rounded&quot;:0};labelBackgroundColor=none;fillColor=#FAE5C7;strokeColor=#0F8B8D;fontColor=#000066;" parent="aM9ryv3xv72pqoxQDRHE-1" vertex="1">
          <mxGeometry x="45" y="60" width="10" height="50" as="geometry" />
        </mxCell>
        <mxCell id="z6V5hL2RsmiHNQm-knUj-47" value="" style="html=1;points=[];perimeter=orthogonalPerimeter;outlineConnect=0;targetShapes=umlLifeline;portConstraint=eastwest;newEdgeStyle={&quot;edgeStyle&quot;:&quot;elbowEdgeStyle&quot;,&quot;elbow&quot;:&quot;vertical&quot;,&quot;curved&quot;:0,&quot;rounded&quot;:0};labelBackgroundColor=none;fillColor=#FAE5C7;strokeColor=#0F8B8D;fontColor=#000066;" parent="aM9ryv3xv72pqoxQDRHE-1" vertex="1">
          <mxGeometry x="45" y="340" width="10" height="40" as="geometry" />
        </mxCell>
        <mxCell id="z6V5hL2RsmiHNQm-knUj-67" value="" style="html=1;points=[];perimeter=orthogonalPerimeter;outlineConnect=0;targetShapes=umlLifeline;portConstraint=eastwest;newEdgeStyle={&quot;edgeStyle&quot;:&quot;elbowEdgeStyle&quot;,&quot;elbow&quot;:&quot;vertical&quot;,&quot;curved&quot;:0,&quot;rounded&quot;:0};labelBackgroundColor=none;fillColor=#FAE5C7;strokeColor=#0F8B8D;fontColor=#000066;" parent="aM9ryv3xv72pqoxQDRHE-1" vertex="1">
          <mxGeometry x="45" y="1030" width="10" height="90" as="geometry" />
        </mxCell>
        <mxCell id="z6V5hL2RsmiHNQm-knUj-86" value="" style="html=1;points=[];perimeter=orthogonalPerimeter;outlineConnect=0;targetShapes=umlLifeline;portConstraint=eastwest;newEdgeStyle={&quot;edgeStyle&quot;:&quot;elbowEdgeStyle&quot;,&quot;elbow&quot;:&quot;vertical&quot;,&quot;curved&quot;:0,&quot;rounded&quot;:0};labelBackgroundColor=none;fillColor=#FAE5C7;strokeColor=#0F8B8D;fontColor=#000066;" parent="aM9ryv3xv72pqoxQDRHE-1" vertex="1">
          <mxGeometry x="45" y="1430" width="10" height="40" as="geometry" />
        </mxCell>
        <mxCell id="aM9ryv3xv72pqoxQDRHE-5" value="Platform" style="shape=umlLifeline;perimeter=lifelinePerimeter;whiteSpace=wrap;html=1;container=0;dropTarget=0;collapsible=0;recursiveResize=0;outlineConnect=0;portConstraint=eastwest;newEdgeStyle={&quot;edgeStyle&quot;:&quot;elbowEdgeStyle&quot;,&quot;elbow&quot;:&quot;vertical&quot;,&quot;curved&quot;:0,&quot;rounded&quot;:0};labelBackgroundColor=none;fillColor=#FAE5C7;strokeColor=#0F8B8D;fontColor=#000066;" parent="1" vertex="1">
          <mxGeometry x="240" y="40" width="100" height="1680" as="geometry" />
        </mxCell>
        <mxCell id="aM9ryv3xv72pqoxQDRHE-6" value="" style="html=1;points=[];perimeter=orthogonalPerimeter;outlineConnect=0;targetShapes=umlLifeline;portConstraint=eastwest;newEdgeStyle={&quot;edgeStyle&quot;:&quot;elbowEdgeStyle&quot;,&quot;elbow&quot;:&quot;vertical&quot;,&quot;curved&quot;:0,&quot;rounded&quot;:0};labelBackgroundColor=none;fillColor=#FAE5C7;strokeColor=#0F8B8D;fontColor=#000066;" parent="aM9ryv3xv72pqoxQDRHE-5" vertex="1">
          <mxGeometry x="45" y="70" width="10" height="140" as="geometry" />
        </mxCell>
        <mxCell id="z6V5hL2RsmiHNQm-knUj-45" value="" style="html=1;points=[];perimeter=orthogonalPerimeter;outlineConnect=0;targetShapes=umlLifeline;portConstraint=eastwest;newEdgeStyle={&quot;edgeStyle&quot;:&quot;elbowEdgeStyle&quot;,&quot;elbow&quot;:&quot;vertical&quot;,&quot;curved&quot;:0,&quot;rounded&quot;:0};labelBackgroundColor=none;fillColor=#FAE5C7;strokeColor=#0F8B8D;fontColor=#000066;" parent="aM9ryv3xv72pqoxQDRHE-5" vertex="1">
          <mxGeometry x="45" y="310" width="10" height="1300" as="geometry" />
        </mxCell>
        <mxCell id="aM9ryv3xv72pqoxQDRHE-7" value="1. Submit Project Request" style="html=1;verticalAlign=bottom;endArrow=block;edgeStyle=elbowEdgeStyle;elbow=vertical;curved=0;rounded=0;labelBackgroundColor=none;strokeColor=#A8201A;fontColor=#000066;" parent="1" source="aM9ryv3xv72pqoxQDRHE-2" target="aM9ryv3xv72pqoxQDRHE-5" edge="1">
          <mxGeometry relative="1" as="geometry">
            <mxPoint x="195" y="130" as="sourcePoint" />
            <Array as="points">
              <mxPoint x="180" y="120" />
            </Array>
            <mxPoint x="270" y="120" as="targetPoint" />
          </mxGeometry>
        </mxCell>
        <mxCell id="aM9ryv3xv72pqoxQDRHE-8" value="3. Return Validation Request" style="html=1;verticalAlign=bottom;endArrow=open;dashed=1;endSize=8;edgeStyle=elbowEdgeStyle;elbow=vertical;curved=0;rounded=0;labelBackgroundColor=none;strokeColor=#A8201A;fontColor=#000066;" parent="1" source="z6V5hL2RsmiHNQm-knUj-1" target="aM9ryv3xv72pqoxQDRHE-5" edge="1">
          <mxGeometry relative="1" as="geometry">
            <mxPoint x="290" y="200" as="targetPoint" />
            <Array as="points">
              <mxPoint x="385" y="200" />
            </Array>
            <mxPoint x="480" y="200" as="sourcePoint" />
          </mxGeometry>
        </mxCell>
        <mxCell id="z6V5hL2RsmiHNQm-knUj-1" value="AI Validator" style="shape=umlLifeline;perimeter=lifelinePerimeter;whiteSpace=wrap;html=1;container=0;dropTarget=0;collapsible=0;recursiveResize=0;outlineConnect=0;portConstraint=eastwest;newEdgeStyle={&quot;edgeStyle&quot;:&quot;elbowEdgeStyle&quot;,&quot;elbow&quot;:&quot;vertical&quot;,&quot;curved&quot;:0,&quot;rounded&quot;:0};labelBackgroundColor=none;fillColor=#FAE5C7;strokeColor=#0F8B8D;fontColor=#000066;" parent="1" vertex="1">
          <mxGeometry x="440" y="40" width="100" height="1680" as="geometry" />
        </mxCell>
        <mxCell id="z6V5hL2RsmiHNQm-knUj-2" value="" style="html=1;points=[];perimeter=orthogonalPerimeter;outlineConnect=0;targetShapes=umlLifeline;portConstraint=eastwest;newEdgeStyle={&quot;edgeStyle&quot;:&quot;elbowEdgeStyle&quot;,&quot;elbow&quot;:&quot;vertical&quot;,&quot;curved&quot;:0,&quot;rounded&quot;:0};labelBackgroundColor=none;fillColor=#FAE5C7;strokeColor=#0F8B8D;fontColor=#000066;" parent="z6V5hL2RsmiHNQm-knUj-1" vertex="1">
          <mxGeometry x="45" y="110" width="10" height="60" as="geometry" />
        </mxCell>
        <mxCell id="z6V5hL2RsmiHNQm-knUj-5" value="Freelancer Pool" style="shape=umlLifeline;perimeter=lifelinePerimeter;whiteSpace=wrap;html=1;container=0;dropTarget=0;collapsible=0;recursiveResize=0;outlineConnect=0;portConstraint=eastwest;newEdgeStyle={&quot;edgeStyle&quot;:&quot;elbowEdgeStyle&quot;,&quot;elbow&quot;:&quot;vertical&quot;,&quot;curved&quot;:0,&quot;rounded&quot;:0};labelBackgroundColor=none;fillColor=#FAE5C7;strokeColor=#0F8B8D;fontColor=#000066;" parent="1" vertex="1">
          <mxGeometry x="640" y="40" width="100" height="1680" as="geometry" />
        </mxCell>
        <mxCell id="z6V5hL2RsmiHNQm-knUj-6" value="" style="html=1;points=[];perimeter=orthogonalPerimeter;outlineConnect=0;targetShapes=umlLifeline;portConstraint=eastwest;newEdgeStyle={&quot;edgeStyle&quot;:&quot;elbowEdgeStyle&quot;,&quot;elbow&quot;:&quot;vertical&quot;,&quot;curved&quot;:0,&quot;rounded&quot;:0};labelBackgroundColor=none;fillColor=#FAE5C7;strokeColor=#0F8B8D;fontColor=#000066;" parent="z6V5hL2RsmiHNQm-knUj-5" vertex="1">
          <mxGeometry x="45" y="180" width="10" height="160" as="geometry" />
        </mxCell>
        <mxCell id="z6V5hL2RsmiHNQm-knUj-81" value="" style="html=1;points=[];perimeter=orthogonalPerimeter;outlineConnect=0;targetShapes=umlLifeline;portConstraint=eastwest;newEdgeStyle={&quot;edgeStyle&quot;:&quot;elbowEdgeStyle&quot;,&quot;elbow&quot;:&quot;vertical&quot;,&quot;curved&quot;:0,&quot;rounded&quot;:0};labelBackgroundColor=none;fillColor=#FAE5C7;strokeColor=#0F8B8D;fontColor=#000066;" parent="z6V5hL2RsmiHNQm-knUj-5" vertex="1">
          <mxGeometry x="45" y="1305" width="10" height="35" as="geometry" />
        </mxCell>
        <mxCell id="z6V5hL2RsmiHNQm-knUj-89" value="" style="html=1;points=[];perimeter=orthogonalPerimeter;outlineConnect=0;targetShapes=umlLifeline;portConstraint=eastwest;newEdgeStyle={&quot;edgeStyle&quot;:&quot;elbowEdgeStyle&quot;,&quot;elbow&quot;:&quot;vertical&quot;,&quot;curved&quot;:0,&quot;rounded&quot;:0};labelBackgroundColor=none;fillColor=#FAE5C7;strokeColor=#0F8B8D;fontColor=#000066;" parent="z6V5hL2RsmiHNQm-knUj-5" vertex="1">
          <mxGeometry x="45" y="1464" width="10" height="35" as="geometry" />
        </mxCell>
        <mxCell id="z6V5hL2RsmiHNQm-knUj-12" value="Database" style="shape=umlLifeline;perimeter=lifelinePerimeter;whiteSpace=wrap;html=1;container=0;dropTarget=0;collapsible=0;recursiveResize=0;outlineConnect=0;portConstraint=eastwest;newEdgeStyle={&quot;edgeStyle&quot;:&quot;elbowEdgeStyle&quot;,&quot;elbow&quot;:&quot;vertical&quot;,&quot;curved&quot;:0,&quot;rounded&quot;:0};labelBackgroundColor=none;fillColor=#FAE5C7;strokeColor=#0F8B8D;fontColor=#000066;" parent="1" vertex="1">
          <mxGeometry x="2040" y="40" width="100" height="1680" as="geometry" />
        </mxCell>
        <mxCell id="z6V5hL2RsmiHNQm-knUj-13" value="" style="html=1;points=[];perimeter=orthogonalPerimeter;outlineConnect=0;targetShapes=umlLifeline;portConstraint=eastwest;newEdgeStyle={&quot;edgeStyle&quot;:&quot;elbowEdgeStyle&quot;,&quot;elbow&quot;:&quot;vertical&quot;,&quot;curved&quot;:0,&quot;rounded&quot;:0};labelBackgroundColor=none;fillColor=#FAE5C7;strokeColor=#0F8B8D;fontColor=#000066;" parent="z6V5hL2RsmiHNQm-knUj-12" vertex="1">
          <mxGeometry x="45" y="1200" width="10" height="40" as="geometry" />
        </mxCell>
        <mxCell id="z6V5hL2RsmiHNQm-knUj-14" value="AI System" style="shape=umlLifeline;perimeter=lifelinePerimeter;whiteSpace=wrap;html=1;container=0;dropTarget=0;collapsible=0;recursiveResize=0;outlineConnect=0;portConstraint=eastwest;newEdgeStyle={&quot;edgeStyle&quot;:&quot;elbowEdgeStyle&quot;,&quot;elbow&quot;:&quot;vertical&quot;,&quot;curved&quot;:0,&quot;rounded&quot;:0};labelBackgroundColor=none;fillColor=#FAE5C7;strokeColor=#0F8B8D;fontColor=#000066;" parent="1" vertex="1">
          <mxGeometry x="1840" y="40" width="100" height="1680" as="geometry" />
        </mxCell>
        <mxCell id="z6V5hL2RsmiHNQm-knUj-78" value="" style="html=1;points=[];perimeter=orthogonalPerimeter;outlineConnect=0;targetShapes=umlLifeline;portConstraint=eastwest;newEdgeStyle={&quot;edgeStyle&quot;:&quot;elbowEdgeStyle&quot;,&quot;elbow&quot;:&quot;vertical&quot;,&quot;curved&quot;:0,&quot;rounded&quot;:0};labelBackgroundColor=none;fillColor=#FAE5C7;strokeColor=#0F8B8D;fontColor=#000066;" parent="z6V5hL2RsmiHNQm-knUj-14" vertex="1">
          <mxGeometry x="45" y="1260" width="10" height="50" as="geometry" />
        </mxCell>
        <mxCell id="z6V5hL2RsmiHNQm-knUj-18" value="Hardware Company" style="shape=umlLifeline;perimeter=lifelinePerimeter;whiteSpace=wrap;html=1;container=0;dropTarget=0;collapsible=0;recursiveResize=0;outlineConnect=0;portConstraint=eastwest;newEdgeStyle={&quot;edgeStyle&quot;:&quot;elbowEdgeStyle&quot;,&quot;elbow&quot;:&quot;vertical&quot;,&quot;curved&quot;:0,&quot;rounded&quot;:0};labelBackgroundColor=none;fillColor=#FAE5C7;strokeColor=#0F8B8D;fontColor=#000066;" parent="1" vertex="1">
          <mxGeometry x="1440" y="40" width="100" height="1680" as="geometry" />
        </mxCell>
        <mxCell id="z6V5hL2RsmiHNQm-knUj-19" value="" style="html=1;points=[];perimeter=orthogonalPerimeter;outlineConnect=0;targetShapes=umlLifeline;portConstraint=eastwest;newEdgeStyle={&quot;edgeStyle&quot;:&quot;elbowEdgeStyle&quot;,&quot;elbow&quot;:&quot;vertical&quot;,&quot;curved&quot;:0,&quot;rounded&quot;:0};labelBackgroundColor=none;fillColor=#FAE5C7;strokeColor=#0F8B8D;fontColor=#000066;" parent="z6V5hL2RsmiHNQm-knUj-18" vertex="1">
          <mxGeometry x="45" y="540" width="10" height="80" as="geometry" />
        </mxCell>
        <mxCell id="z6V5hL2RsmiHNQm-knUj-58" value="" style="html=1;points=[];perimeter=orthogonalPerimeter;outlineConnect=0;targetShapes=umlLifeline;portConstraint=eastwest;newEdgeStyle={&quot;edgeStyle&quot;:&quot;elbowEdgeStyle&quot;,&quot;elbow&quot;:&quot;vertical&quot;,&quot;curved&quot;:0,&quot;rounded&quot;:0};labelBackgroundColor=none;fillColor=#FAE5C7;strokeColor=#0F8B8D;fontColor=#000066;" parent="z6V5hL2RsmiHNQm-knUj-18" vertex="1">
          <mxGeometry x="45" y="740" width="10" height="90" as="geometry" />
        </mxCell>
        <mxCell id="z6V5hL2RsmiHNQm-knUj-63" value="" style="html=1;points=[];perimeter=orthogonalPerimeter;outlineConnect=0;targetShapes=umlLifeline;portConstraint=eastwest;newEdgeStyle={&quot;edgeStyle&quot;:&quot;elbowEdgeStyle&quot;,&quot;elbow&quot;:&quot;vertical&quot;,&quot;curved&quot;:0,&quot;rounded&quot;:0};labelBackgroundColor=none;fillColor=#FAE5C7;strokeColor=#0F8B8D;fontColor=#000066;" parent="z6V5hL2RsmiHNQm-knUj-18" vertex="1">
          <mxGeometry x="45" y="950" width="10" height="90" as="geometry" />
        </mxCell>
        <mxCell id="z6V5hL2RsmiHNQm-knUj-20" value="Company Account" style="shape=umlLifeline;perimeter=lifelinePerimeter;whiteSpace=wrap;html=1;container=0;dropTarget=0;collapsible=0;recursiveResize=0;outlineConnect=0;portConstraint=eastwest;newEdgeStyle={&quot;edgeStyle&quot;:&quot;elbowEdgeStyle&quot;,&quot;elbow&quot;:&quot;vertical&quot;,&quot;curved&quot;:0,&quot;rounded&quot;:0};labelBackgroundColor=none;fillColor=#FAE5C7;strokeColor=#0F8B8D;fontColor=#000066;" parent="1" vertex="1">
          <mxGeometry x="1240" y="40" width="100" height="1680" as="geometry" />
        </mxCell>
        <mxCell id="z6V5hL2RsmiHNQm-knUj-21" value="" style="html=1;points=[];perimeter=orthogonalPerimeter;outlineConnect=0;targetShapes=umlLifeline;portConstraint=eastwest;newEdgeStyle={&quot;edgeStyle&quot;:&quot;elbowEdgeStyle&quot;,&quot;elbow&quot;:&quot;vertical&quot;,&quot;curved&quot;:0,&quot;rounded&quot;:0};labelBackgroundColor=none;fillColor=#FAE5C7;strokeColor=#0F8B8D;fontColor=#000066;" parent="z6V5hL2RsmiHNQm-knUj-20" vertex="1">
          <mxGeometry x="45" y="860" width="10" height="80" as="geometry" />
        </mxCell>
        <mxCell id="z6V5hL2RsmiHNQm-knUj-74" value="" style="html=1;points=[];perimeter=orthogonalPerimeter;outlineConnect=0;targetShapes=umlLifeline;portConstraint=eastwest;newEdgeStyle={&quot;edgeStyle&quot;:&quot;elbowEdgeStyle&quot;,&quot;elbow&quot;:&quot;vertical&quot;,&quot;curved&quot;:0,&quot;rounded&quot;:0};labelBackgroundColor=none;fillColor=#FAE5C7;strokeColor=#0F8B8D;fontColor=#000066;" parent="z6V5hL2RsmiHNQm-knUj-20" vertex="1">
          <mxGeometry x="45" y="1120" width="10" height="40" as="geometry" />
        </mxCell>
        <mxCell id="z6V5hL2RsmiHNQm-knUj-84" value="" style="html=1;points=[];perimeter=orthogonalPerimeter;outlineConnect=0;targetShapes=umlLifeline;portConstraint=eastwest;newEdgeStyle={&quot;edgeStyle&quot;:&quot;elbowEdgeStyle&quot;,&quot;elbow&quot;:&quot;vertical&quot;,&quot;curved&quot;:0,&quot;rounded&quot;:0};labelBackgroundColor=none;fillColor=#FAE5C7;strokeColor=#0F8B8D;fontColor=#000066;" parent="z6V5hL2RsmiHNQm-knUj-20" vertex="1">
          <mxGeometry x="45" y="1354" width="10" height="35" as="geometry" />
        </mxCell>
        <mxCell id="z6V5hL2RsmiHNQm-knUj-90" value="" style="html=1;points=[];perimeter=orthogonalPerimeter;outlineConnect=0;targetShapes=umlLifeline;portConstraint=eastwest;newEdgeStyle={&quot;edgeStyle&quot;:&quot;elbowEdgeStyle&quot;,&quot;elbow&quot;:&quot;vertical&quot;,&quot;curved&quot;:0,&quot;rounded&quot;:0};labelBackgroundColor=none;fillColor=#FAE5C7;strokeColor=#0F8B8D;fontColor=#000066;" parent="z6V5hL2RsmiHNQm-knUj-20" vertex="1">
          <mxGeometry x="45" y="1354" width="10" height="35" as="geometry" />
        </mxCell>
        <mxCell id="z6V5hL2RsmiHNQm-knUj-93" value="" style="html=1;points=[];perimeter=orthogonalPerimeter;outlineConnect=0;targetShapes=umlLifeline;portConstraint=eastwest;newEdgeStyle={&quot;edgeStyle&quot;:&quot;elbowEdgeStyle&quot;,&quot;elbow&quot;:&quot;vertical&quot;,&quot;curved&quot;:0,&quot;rounded&quot;:0};labelBackgroundColor=none;fillColor=#FAE5C7;strokeColor=#0F8B8D;fontColor=#000066;" parent="z6V5hL2RsmiHNQm-knUj-20" vertex="1">
          <mxGeometry x="45" y="1510" width="10" height="35" as="geometry" />
        </mxCell>
        <mxCell id="z6V5hL2RsmiHNQm-knUj-22" value="3D Model Designer" style="shape=umlLifeline;perimeter=lifelinePerimeter;whiteSpace=wrap;html=1;container=0;dropTarget=0;collapsible=0;recursiveResize=0;outlineConnect=0;portConstraint=eastwest;newEdgeStyle={&quot;edgeStyle&quot;:&quot;elbowEdgeStyle&quot;,&quot;elbow&quot;:&quot;vertical&quot;,&quot;curved&quot;:0,&quot;rounded&quot;:0};labelBackgroundColor=none;fillColor=#FAE5C7;strokeColor=#0F8B8D;fontColor=#000066;" parent="1" vertex="1">
          <mxGeometry x="1040" y="40" width="100" height="1680" as="geometry" />
        </mxCell>
        <mxCell id="z6V5hL2RsmiHNQm-knUj-23" value="" style="html=1;points=[];perimeter=orthogonalPerimeter;outlineConnect=0;targetShapes=umlLifeline;portConstraint=eastwest;newEdgeStyle={&quot;edgeStyle&quot;:&quot;elbowEdgeStyle&quot;,&quot;elbow&quot;:&quot;vertical&quot;,&quot;curved&quot;:0,&quot;rounded&quot;:0};labelBackgroundColor=none;fillColor=#FAE5C7;strokeColor=#0F8B8D;fontColor=#000066;" parent="z6V5hL2RsmiHNQm-knUj-22" vertex="1">
          <mxGeometry x="45" y="450" width="10" height="90" as="geometry" />
        </mxCell>
        <mxCell id="z6V5hL2RsmiHNQm-knUj-24" value="Planner" style="shape=umlLifeline;perimeter=lifelinePerimeter;whiteSpace=wrap;html=1;container=0;dropTarget=0;collapsible=0;recursiveResize=0;outlineConnect=0;portConstraint=eastwest;newEdgeStyle={&quot;edgeStyle&quot;:&quot;elbowEdgeStyle&quot;,&quot;elbow&quot;:&quot;vertical&quot;,&quot;curved&quot;:0,&quot;rounded&quot;:0};labelBackgroundColor=none;fillColor=#FAE5C7;strokeColor=#0F8B8D;fontColor=#000066;" parent="1" vertex="1">
          <mxGeometry x="840" y="40" width="100" height="1680" as="geometry" />
        </mxCell>
        <mxCell id="z6V5hL2RsmiHNQm-knUj-25" value="" style="html=1;points=[];perimeter=orthogonalPerimeter;outlineConnect=0;targetShapes=umlLifeline;portConstraint=eastwest;newEdgeStyle={&quot;edgeStyle&quot;:&quot;elbowEdgeStyle&quot;,&quot;elbow&quot;:&quot;vertical&quot;,&quot;curved&quot;:0,&quot;rounded&quot;:0};labelBackgroundColor=none;fillColor=#FAE5C7;strokeColor=#0F8B8D;fontColor=#000066;" parent="z6V5hL2RsmiHNQm-knUj-24" vertex="1">
          <mxGeometry x="45" y="220" width="10" height="80" as="geometry" />
        </mxCell>
        <mxCell id="z6V5hL2RsmiHNQm-knUj-49" value="" style="html=1;points=[];perimeter=orthogonalPerimeter;outlineConnect=0;targetShapes=umlLifeline;portConstraint=eastwest;newEdgeStyle={&quot;edgeStyle&quot;:&quot;elbowEdgeStyle&quot;,&quot;elbow&quot;:&quot;vertical&quot;,&quot;curved&quot;:0,&quot;rounded&quot;:0};labelBackgroundColor=none;fillColor=#FAE5C7;strokeColor=#0F8B8D;fontColor=#000066;" parent="z6V5hL2RsmiHNQm-knUj-24" vertex="1">
          <mxGeometry x="45" y="406" width="10" height="24" as="geometry" />
        </mxCell>
        <mxCell id="z6V5hL2RsmiHNQm-knUj-26" value="&lt;li data-start=&quot;413&quot; data-end=&quot;436&quot; class=&quot;&quot;&gt;&lt;p data-start=&quot;416&quot; data-end=&quot;436&quot; class=&quot;&quot;&gt;&lt;span style=&quot;background-color: transparent;&quot;&gt;&amp;nbsp; &amp;nbsp; &amp;nbsp; &amp;nbsp; &amp;nbsp; &amp;nbsp; &amp;nbsp; &amp;nbsp; &amp;nbsp; &amp;nbsp; &amp;nbsp; &amp;nbsp; &amp;nbsp; &amp;nbsp; &amp;nbsp; &amp;nbsp; &amp;nbsp; &amp;nbsp; &amp;nbsp; &amp;nbsp; &amp;nbsp; &amp;nbsp; &amp;nbsp; &amp;nbsp; &amp;nbsp; &amp;nbsp; &amp;nbsp; &amp;nbsp; &amp;nbsp; &amp;nbsp; Software Developer&lt;/span&gt;&lt;/p&gt;&lt;/li&gt;&lt;br&gt;&lt;li data-start=&quot;437&quot; data-end=&quot;452&quot; class=&quot;&quot;&gt;&lt;br&gt;&lt;p data-start=&quot;441&quot; data-end=&quot;452&quot; class=&quot;&quot;&gt;&lt;/p&gt;&lt;/li&gt;" style="shape=umlLifeline;perimeter=lifelinePerimeter;whiteSpace=wrap;html=1;container=0;dropTarget=0;collapsible=0;recursiveResize=0;outlineConnect=0;portConstraint=eastwest;newEdgeStyle={&quot;edgeStyle&quot;:&quot;elbowEdgeStyle&quot;,&quot;elbow&quot;:&quot;vertical&quot;,&quot;curved&quot;:0,&quot;rounded&quot;:0};labelBackgroundColor=none;fillColor=#FAE5C7;strokeColor=#0F8B8D;fontColor=#000066;" parent="1" vertex="1">
          <mxGeometry x="1640" y="40" width="100" height="1680" as="geometry" />
        </mxCell>
        <mxCell id="z6V5hL2RsmiHNQm-knUj-27" value="" style="html=1;points=[];perimeter=orthogonalPerimeter;outlineConnect=0;targetShapes=umlLifeline;portConstraint=eastwest;newEdgeStyle={&quot;edgeStyle&quot;:&quot;elbowEdgeStyle&quot;,&quot;elbow&quot;:&quot;vertical&quot;,&quot;curved&quot;:0,&quot;rounded&quot;:0};labelBackgroundColor=none;fillColor=#FAE5C7;strokeColor=#0F8B8D;fontColor=#000066;" parent="z6V5hL2RsmiHNQm-knUj-26" vertex="1">
          <mxGeometry x="45" y="650" width="10" height="90" as="geometry" />
        </mxCell>
        <mxCell id="z6V5hL2RsmiHNQm-knUj-28" value="Admin" style="shape=umlLifeline;perimeter=lifelinePerimeter;whiteSpace=wrap;html=1;container=0;dropTarget=0;collapsible=0;recursiveResize=0;outlineConnect=0;portConstraint=eastwest;newEdgeStyle={&quot;edgeStyle&quot;:&quot;elbowEdgeStyle&quot;,&quot;elbow&quot;:&quot;vertical&quot;,&quot;curved&quot;:0,&quot;rounded&quot;:0};labelBackgroundColor=none;fillColor=#FAE5C7;strokeColor=#0F8B8D;fontColor=#000066;" parent="1" vertex="1">
          <mxGeometry x="2240" y="40" width="100" height="1680" as="geometry" />
        </mxCell>
        <mxCell id="z6V5hL2RsmiHNQm-knUj-33" value="2. Validate Request" style="html=1;verticalAlign=bottom;endArrow=block;edgeStyle=elbowEdgeStyle;elbow=vertical;curved=0;rounded=0;labelBackgroundColor=none;strokeColor=#A8201A;fontColor=#000066;" parent="1" source="aM9ryv3xv72pqoxQDRHE-6" target="z6V5hL2RsmiHNQm-knUj-1" edge="1">
          <mxGeometry relative="1" as="geometry">
            <mxPoint x="300" y="160" as="sourcePoint" />
            <Array as="points">
              <mxPoint x="400" y="160" />
            </Array>
            <mxPoint x="470" y="160" as="targetPoint" />
          </mxGeometry>
        </mxCell>
        <mxCell id="z6V5hL2RsmiHNQm-knUj-39" value="4. Publish Request" style="html=1;verticalAlign=bottom;endArrow=block;edgeStyle=elbowEdgeStyle;elbow=vertical;curved=0;rounded=0;labelBackgroundColor=none;strokeColor=#A8201A;fontColor=#000066;" parent="1" source="aM9ryv3xv72pqoxQDRHE-5" target="z6V5hL2RsmiHNQm-knUj-5" edge="1">
          <mxGeometry x="0.6025" relative="1" as="geometry">
            <mxPoint x="300" y="240" as="sourcePoint" />
            <Array as="points">
              <mxPoint x="405" y="240" />
            </Array>
            <mxPoint x="495" y="240" as="targetPoint" />
            <mxPoint as="offset" />
          </mxGeometry>
        </mxCell>
        <mxCell id="z6V5hL2RsmiHNQm-knUj-42" value="" style="endArrow=classic;html=1;rounded=0;labelBackgroundColor=none;strokeColor=#A8201A;fontColor=#000066;" parent="1" edge="1">
          <mxGeometry width="50" height="50" relative="1" as="geometry">
            <mxPoint x="689.5" y="279" as="sourcePoint" />
            <mxPoint x="889.5" y="279" as="targetPoint" />
          </mxGeometry>
        </mxCell>
        <mxCell id="z6V5hL2RsmiHNQm-knUj-43" value="&lt;font style=&quot;font-size: 11px;&quot;&gt;5.&amp;nbsp;Assign Planning Task&amp;nbsp;&amp;nbsp;&lt;/font&gt;" style="text;html=1;align=center;verticalAlign=middle;resizable=0;points=[];autosize=1;strokeColor=none;fillColor=none;labelBackgroundColor=none;fontColor=#000066;" parent="1" vertex="1">
          <mxGeometry x="733" y="254" width="150" height="30" as="geometry" />
        </mxCell>
        <mxCell id="z6V5hL2RsmiHNQm-knUj-44" value="6. Planning Task Accepted" style="html=1;verticalAlign=bottom;endArrow=open;dashed=1;endSize=8;edgeStyle=elbowEdgeStyle;elbow=vertical;curved=0;rounded=0;labelBackgroundColor=none;strokeColor=#A8201A;fontColor=#000066;" parent="1" target="z6V5hL2RsmiHNQm-knUj-5" edge="1">
          <mxGeometry relative="1" as="geometry">
            <mxPoint x="689" y="320" as="targetPoint" />
            <Array as="points">
              <mxPoint x="784" y="320" />
            </Array>
            <mxPoint x="889" y="320" as="sourcePoint" />
          </mxGeometry>
        </mxCell>
        <mxCell id="z6V5hL2RsmiHNQm-knUj-46" value="6.&amp;nbsp;Planner Confirmed" style="html=1;verticalAlign=bottom;endArrow=open;dashed=1;endSize=8;edgeStyle=elbowEdgeStyle;elbow=vertical;curved=0;rounded=0;labelBackgroundColor=none;strokeColor=#A8201A;fontColor=#000066;" parent="1" edge="1">
          <mxGeometry x="0.5431" relative="1" as="geometry">
            <mxPoint x="288.66666666666674" y="362.0000000000002" as="targetPoint" />
            <Array as="points">
              <mxPoint x="384" y="362" />
            </Array>
            <mxPoint x="688.5000000000002" y="362.0000000000002" as="sourcePoint" />
            <mxPoint as="offset" />
          </mxGeometry>
        </mxCell>
        <mxCell id="z6V5hL2RsmiHNQm-knUj-48" value="7. Planning Assigned" style="html=1;verticalAlign=bottom;endArrow=open;dashed=1;endSize=8;edgeStyle=elbowEdgeStyle;elbow=vertical;curved=0;rounded=0;labelBackgroundColor=none;strokeColor=#A8201A;fontColor=#000066;" parent="1" edge="1">
          <mxGeometry relative="1" as="geometry">
            <mxPoint x="90" y="401" as="targetPoint" />
            <Array as="points">
              <mxPoint x="185" y="401" />
            </Array>
            <mxPoint x="290" y="401" as="sourcePoint" />
          </mxGeometry>
        </mxCell>
        <mxCell id="z6V5hL2RsmiHNQm-knUj-50" value="" style="endArrow=classic;html=1;rounded=0;labelBackgroundColor=none;strokeColor=#A8201A;fontColor=#000066;" parent="1" edge="1">
          <mxGeometry width="50" height="50" relative="1" as="geometry">
            <mxPoint x="889.5" y="455" as="sourcePoint" />
            <mxPoint x="289.16666666666674" y="455" as="targetPoint" />
          </mxGeometry>
        </mxCell>
        <mxCell id="z6V5hL2RsmiHNQm-knUj-51" value="&lt;span style=&quot;font-size: 11px;&quot;&gt;8.&amp;nbsp;&lt;/span&gt;Submit Planning Document" style="text;html=1;align=center;verticalAlign=middle;resizable=0;points=[];autosize=1;strokeColor=none;fillColor=none;labelBackgroundColor=none;fontColor=#000066;" parent="1" vertex="1">
          <mxGeometry x="304" y="428" width="180" height="30" as="geometry" />
        </mxCell>
        <mxCell id="z6V5hL2RsmiHNQm-knUj-52" value="11.&amp;nbsp;Notify Prototyping Company" style="html=1;verticalAlign=bottom;endArrow=block;edgeStyle=elbowEdgeStyle;elbow=vertical;curved=0;rounded=0;labelBackgroundColor=none;strokeColor=#A8201A;fontColor=#000066;" parent="1" target="z6V5hL2RsmiHNQm-knUj-18" edge="1">
          <mxGeometry x="0.8508" relative="1" as="geometry">
            <mxPoint x="290.02761904761905" y="600" as="sourcePoint" />
            <Array as="points">
              <mxPoint x="394.48" y="600" />
            </Array>
            <mxPoint x="1089.98" y="600" as="targetPoint" />
            <mxPoint as="offset" />
          </mxGeometry>
        </mxCell>
        <mxCell id="z6V5hL2RsmiHNQm-knUj-53" value="10.&amp;nbsp;Design Task Accepted" style="html=1;verticalAlign=bottom;endArrow=open;dashed=1;endSize=8;edgeStyle=elbowEdgeStyle;elbow=vertical;curved=0;rounded=0;labelBackgroundColor=none;strokeColor=#A8201A;fontColor=#000066;" parent="1" source="z6V5hL2RsmiHNQm-knUj-22" edge="1">
          <mxGeometry x="0.8001" relative="1" as="geometry">
            <mxPoint x="290.08666666666676" y="560.0000000000002" as="targetPoint" />
            <Array as="points">
              <mxPoint x="385.42" y="560" />
            </Array>
            <mxPoint x="689.9200000000002" y="560.0000000000002" as="sourcePoint" />
            <mxPoint x="1" as="offset" />
          </mxGeometry>
        </mxCell>
        <mxCell id="z6V5hL2RsmiHNQm-knUj-54" value="9.&amp;nbsp;Notify Design Task Available" style="html=1;verticalAlign=bottom;endArrow=block;edgeStyle=elbowEdgeStyle;elbow=vertical;curved=0;rounded=0;labelBackgroundColor=none;strokeColor=#A8201A;fontColor=#000066;" parent="1" source="aM9ryv3xv72pqoxQDRHE-5" target="z6V5hL2RsmiHNQm-knUj-22" edge="1">
          <mxGeometry x="0.7513" relative="1" as="geometry">
            <mxPoint x="299" y="518" as="sourcePoint" />
            <Array as="points">
              <mxPoint x="404" y="518" />
            </Array>
            <mxPoint x="1070" y="518" as="targetPoint" />
            <mxPoint x="-1" as="offset" />
          </mxGeometry>
        </mxCell>
        <mxCell id="z6V5hL2RsmiHNQm-knUj-55" value="12.&amp;nbsp;Confirm Prototype Build " style="html=1;verticalAlign=bottom;endArrow=open;dashed=1;endSize=8;edgeStyle=elbowEdgeStyle;elbow=vertical;curved=0;rounded=0;labelBackgroundColor=none;strokeColor=#A8201A;fontColor=#000066;" parent="1" source="z6V5hL2RsmiHNQm-knUj-18" edge="1">
          <mxGeometry x="0.8341" relative="1" as="geometry">
            <mxPoint x="290.54666666666674" y="640.0000000000002" as="targetPoint" />
            <Array as="points">
              <mxPoint x="385.88" y="640" />
            </Array>
            <mxPoint x="1089.46" y="640" as="sourcePoint" />
            <mxPoint x="1" as="offset" />
          </mxGeometry>
        </mxCell>
        <mxCell id="z6V5hL2RsmiHNQm-knUj-56" value="13.&amp;nbsp;Notify Software Developer" style="html=1;verticalAlign=bottom;endArrow=block;edgeStyle=elbowEdgeStyle;elbow=vertical;curved=0;rounded=0;labelBackgroundColor=none;strokeColor=#A8201A;fontColor=#000066;" parent="1" target="z6V5hL2RsmiHNQm-knUj-26" edge="1">
          <mxGeometry x="0.8508" relative="1" as="geometry">
            <mxPoint x="290.01761904761906" y="710" as="sourcePoint" />
            <Array as="points">
              <mxPoint x="394.47" y="710" />
            </Array>
            <mxPoint x="1489.99" y="710" as="targetPoint" />
            <mxPoint as="offset" />
          </mxGeometry>
        </mxCell>
        <mxCell id="z6V5hL2RsmiHNQm-knUj-57" value="14.&amp;nbsp;Upload Code" style="html=1;verticalAlign=bottom;endArrow=open;dashed=1;endSize=8;edgeStyle=elbowEdgeStyle;elbow=vertical;curved=0;rounded=0;labelBackgroundColor=none;strokeColor=#A8201A;fontColor=#000066;" parent="1" source="z6V5hL2RsmiHNQm-knUj-26" edge="1">
          <mxGeometry x="0.8341" relative="1" as="geometry">
            <mxPoint x="290.77666666666676" y="758.8200000000003" as="targetPoint" />
            <Array as="points">
              <mxPoint x="386.11" y="758.82" />
            </Array>
            <mxPoint x="1489.23" y="758.82" as="sourcePoint" />
            <mxPoint x="1" as="offset" />
          </mxGeometry>
        </mxCell>
        <mxCell id="z6V5hL2RsmiHNQm-knUj-59" value="15.&amp;nbsp;Forward Code" style="html=1;verticalAlign=bottom;endArrow=block;edgeStyle=elbowEdgeStyle;elbow=vertical;curved=0;rounded=0;labelBackgroundColor=none;strokeColor=#A8201A;fontColor=#000066;" parent="1" edge="1">
          <mxGeometry x="0.8508" relative="1" as="geometry">
            <mxPoint x="290.01761904761906" y="810" as="sourcePoint" />
            <Array as="points">
              <mxPoint x="394.47" y="810" />
            </Array>
            <mxPoint x="1489.99" y="810" as="targetPoint" />
            <mxPoint as="offset" />
          </mxGeometry>
        </mxCell>
        <mxCell id="z6V5hL2RsmiHNQm-knUj-60" value="16.&amp;nbsp;Integrate &amp;amp; Test" style="html=1;verticalAlign=bottom;endArrow=open;dashed=1;endSize=8;edgeStyle=elbowEdgeStyle;elbow=vertical;curved=0;rounded=0;labelBackgroundColor=none;strokeColor=#A8201A;fontColor=#000066;" parent="1" edge="1">
          <mxGeometry x="0.8341" relative="1" as="geometry">
            <mxPoint x="290.27666666666676" y="850.0000000000002" as="targetPoint" />
            <Array as="points">
              <mxPoint x="385.61" y="850" />
            </Array>
            <mxPoint x="1489.73" y="850" as="sourcePoint" />
            <mxPoint x="1" as="offset" />
          </mxGeometry>
        </mxCell>
        <mxCell id="z6V5hL2RsmiHNQm-knUj-61" value="17.&amp;nbsp;Notify Company for Review" style="html=1;verticalAlign=bottom;endArrow=block;edgeStyle=elbowEdgeStyle;elbow=vertical;curved=0;rounded=0;labelBackgroundColor=none;strokeColor=#A8201A;fontColor=#000066;" parent="1" target="z6V5hL2RsmiHNQm-knUj-20" edge="1">
          <mxGeometry x="0.8009" relative="1" as="geometry">
            <mxPoint x="290.01761904761906" y="920" as="sourcePoint" />
            <Array as="points">
              <mxPoint x="394.47" y="920" />
            </Array>
            <mxPoint x="1489.99" y="920" as="targetPoint" />
            <mxPoint as="offset" />
          </mxGeometry>
        </mxCell>
        <mxCell id="z6V5hL2RsmiHNQm-knUj-62" value="18.&amp;nbsp;Approve / Request Changes" style="html=1;verticalAlign=bottom;endArrow=open;dashed=1;endSize=8;edgeStyle=elbowEdgeStyle;elbow=vertical;curved=0;rounded=0;labelBackgroundColor=none;strokeColor=#A8201A;fontColor=#000066;" parent="1" edge="1">
          <mxGeometry x="0.8205" relative="1" as="geometry">
            <mxPoint x="290.27666666666676" y="960.0000000000002" as="targetPoint" />
            <Array as="points">
              <mxPoint x="385.61" y="960" />
            </Array>
            <mxPoint x="1290" y="960" as="sourcePoint" />
            <mxPoint x="-1" as="offset" />
          </mxGeometry>
        </mxCell>
        <mxCell id="z6V5hL2RsmiHNQm-knUj-64" value="19.&amp;nbsp;Notify Hardware Company" style="html=1;verticalAlign=bottom;endArrow=block;edgeStyle=elbowEdgeStyle;elbow=vertical;curved=0;rounded=0;labelBackgroundColor=none;strokeColor=#A8201A;fontColor=#000066;" parent="1" edge="1">
          <mxGeometry x="0.8508" relative="1" as="geometry">
            <mxPoint x="290.01761904761906" y="1010" as="sourcePoint" />
            <Array as="points">
              <mxPoint x="394.47" y="1010" />
            </Array>
            <mxPoint x="1489.99" y="1010" as="targetPoint" />
            <mxPoint as="offset" />
          </mxGeometry>
        </mxCell>
        <mxCell id="z6V5hL2RsmiHNQm-knUj-65" value="20.&amp;nbsp;Final Assembly Complete" style="html=1;verticalAlign=bottom;endArrow=open;dashed=1;endSize=8;edgeStyle=elbowEdgeStyle;elbow=horizontal;curved=0;rounded=0;labelBackgroundColor=none;strokeColor=#A8201A;fontColor=#000066;" parent="1" edge="1">
          <mxGeometry x="0.8341" relative="1" as="geometry">
            <mxPoint x="290.27666666666676" y="1060.0000000000002" as="targetPoint" />
            <Array as="points">
              <mxPoint x="385.61" y="1060" />
            </Array>
            <mxPoint x="1489.73" y="1060" as="sourcePoint" />
            <mxPoint x="1" as="offset" />
          </mxGeometry>
        </mxCell>
        <mxCell id="z6V5hL2RsmiHNQm-knUj-68" value="" style="endArrow=classic;html=1;rounded=0;labelBackgroundColor=none;strokeColor=#A8201A;fontColor=#000066;" parent="1" edge="1">
          <mxGeometry width="50" height="50" relative="1" as="geometry">
            <mxPoint x="289.5" y="1100" as="sourcePoint" />
            <mxPoint x="89.99666666666675" y="1100" as="targetPoint" />
          </mxGeometry>
        </mxCell>
        <mxCell id="z6V5hL2RsmiHNQm-knUj-70" value="21.&amp;nbsp;Deploy Product" style="text;html=1;align=center;verticalAlign=middle;resizable=0;points=[];autosize=1;strokeColor=none;fillColor=none;labelBackgroundColor=none;fontColor=#000066;" parent="1" vertex="1">
          <mxGeometry x="115" y="1076" width="130" height="30" as="geometry" />
        </mxCell>
        <mxCell id="z6V5hL2RsmiHNQm-knUj-73" value="22.&amp;nbsp;Confirm Delivery" style="text;html=1;align=center;verticalAlign=middle;resizable=0;points=[];autosize=1;strokeColor=none;fillColor=none;labelBackgroundColor=none;fontColor=#000066;" parent="1" vertex="1">
          <mxGeometry x="115" y="1115" width="130" height="30" as="geometry" />
        </mxCell>
        <mxCell id="z6V5hL2RsmiHNQm-knUj-75" value="23. Release Payment" style="html=1;verticalAlign=bottom;endArrow=block;edgeStyle=elbowEdgeStyle;elbow=vertical;curved=0;rounded=0;labelBackgroundColor=none;strokeColor=#A8201A;fontColor=#000066;" parent="1" edge="1">
          <mxGeometry x="0.8009" relative="1" as="geometry">
            <mxPoint x="289.9976190476191" y="1180" as="sourcePoint" />
            <Array as="points">
              <mxPoint x="394.45000000000005" y="1180" />
            </Array>
            <mxPoint x="1288.98" y="1180" as="targetPoint" />
            <mxPoint as="offset" />
          </mxGeometry>
        </mxCell>
        <mxCell id="z6V5hL2RsmiHNQm-knUj-77" value="24.&amp;nbsp;Archive Project" style="html=1;verticalAlign=bottom;endArrow=block;edgeStyle=elbowEdgeStyle;elbow=vertical;curved=0;rounded=0;labelBackgroundColor=none;strokeColor=#A8201A;fontColor=#000066;" parent="1" target="z6V5hL2RsmiHNQm-knUj-12" edge="1">
          <mxGeometry x="0.9005" relative="1" as="geometry">
            <mxPoint x="290.01761904761906" y="1260" as="sourcePoint" />
            <Array as="points">
              <mxPoint x="394.47" y="1260" />
            </Array>
            <mxPoint x="1489.99" y="1260" as="targetPoint" />
            <mxPoint x="1" as="offset" />
          </mxGeometry>
        </mxCell>
        <mxCell id="z6V5hL2RsmiHNQm-knUj-79" value="" style="endArrow=classic;html=1;rounded=0;labelBackgroundColor=none;strokeColor=#A8201A;fontColor=#000066;" parent="1" source="z6V5hL2RsmiHNQm-knUj-14" edge="1">
          <mxGeometry width="50" height="50" relative="1" as="geometry">
            <mxPoint x="1839.5" y="1320" as="sourcePoint" />
            <mxPoint x="290" y="1320" as="targetPoint" />
          </mxGeometry>
        </mxCell>
        <mxCell id="z6V5hL2RsmiHNQm-knUj-80" value="25.&amp;nbsp;Log &amp;amp; Analyze Project" style="text;html=1;align=center;verticalAlign=middle;resizable=0;points=[];autosize=1;strokeColor=none;fillColor=none;labelBackgroundColor=none;fontColor=#000066;" parent="1" vertex="1">
          <mxGeometry x="308" y="1296" width="160" height="30" as="geometry" />
        </mxCell>
        <mxCell id="z6V5hL2RsmiHNQm-knUj-82" value="" style="html=1;points=[];perimeter=orthogonalPerimeter;outlineConnect=0;targetShapes=umlLifeline;portConstraint=eastwest;newEdgeStyle={&quot;edgeStyle&quot;:&quot;elbowEdgeStyle&quot;,&quot;elbow&quot;:&quot;vertical&quot;,&quot;curved&quot;:0,&quot;rounded&quot;:0};labelBackgroundColor=none;fillColor=#FAE5C7;strokeColor=#0F8B8D;fontColor=#000066;" parent="1" vertex="1">
          <mxGeometry x="2285" y="1600" width="10" height="60" as="geometry" />
        </mxCell>
        <mxCell id="z6V5hL2RsmiHNQm-knUj-83" value="26.&lt;span style=&quot;font-family: monospace; font-size: 0px; text-align: start; background-color: rgb(236, 236, 236);&quot;&gt;%3CmxGraphModel%3E%3Croot%3E%3CmxCell%20id%3D%220%22%2F%3E%3CmxCell%20id%3D%221%22%20parent%3D%220%22%2F%3E%3CmxCell%20id%3D%222%22%20value%3D%224.%20Publish%20Request%22%20style%3D%22html%3D1%3BverticalAlign%3Dbottom%3BendArrow%3Dblock%3BedgeStyle%3DelbowEdgeStyle%3Belbow%3Dvertical%3Bcurved%3D0%3Brounded%3D0%3B%22%20edge%3D%221%22%20parent%3D%221%22%3E%3CmxGeometry%20x%3D%220.6025%22%20relative%3D%221%22%20as%3D%22geometry%22%3E%3CmxPoint%20x%3D%22289%22%20y%3D%22240%22%20as%3D%22sourcePoint%22%2F%3E%3CArray%20as%3D%22points%22%3E%3CmxPoint%20x%3D%22405%22%20y%3D%22240%22%2F%3E%3C%2FArray%3E%3CmxPoint%20x%3D%22690%22%20y%3D%22240%22%20as%3D%22targetPoint%22%2F%3E%3CmxPoint%20as%3D%22offset%22%2F%3E%3C%2FmxGeometry%3E%3C%2FmxCell%3E%3C%2Froot%3E%3C%2FmxGraphModel%3E&lt;/span&gt;&amp;nbsp;Recommend Similar Projects&lt;span style=&quot;font-family: monospace; font-size: 0px; text-align: start; background-color: rgb(236, 236, 236);&quot;&gt;%3CmxGraphModel%3E%3Croot%3E%3CmxCell%20id%3D%220%22%2F%3E%3CmxCell%20id%3D%221%22%20parent%3D%220%22%2F%3E%3CmxCell%20id%3D%222%22%20value%3D%224.%20Publish%20Request%22%20style%3D%22html%3D1%3BverticalAlign%3Dbottom%3BendArrow%3Dblock%3BedgeStyle%3DelbowEdgeStyle%3Belbow%3Dvertical%3Bcurved%3D0%3Brounded%3D0%3B%22%20edge%3D%221%22%20parent%3D%221%22%3E%3CmxGeometry%20x%3D%220.6025%22%20relative%3D%221%22%20as%3D%22geometry%22%3E%3CmxPoint%20x%3D%22289%22%20y%3D%22240%22%20as%3D%22sourcePoint%22%2F%3E%3CArray%20as%3D%22points%22%3E%3CmxPoint%20x%3D%22405%22%20y%3D%22240%22%2F%3E%3C%2FArray%3E%3CmxPoint%20x%3D%22690%22%20y%3D%22240%22%20as%3D%22targetPoint%22%2F%3E%3CmxPoint%20as%3D%22offset%22%2F%3E%3C%2FmxGeometry%3E%3C%2FmxCell%3E%3C%2Froot%3E%3C%2FmxGraphModel%3E&lt;/span&gt;&lt;span style=&quot;font-family: monospace; font-size: 0px; text-align: start; background-color: rgb(236, 236, 236);&quot;&gt;%3CmxGraphModel%3E%3Croot%3E%3CmxCell%20id%3D%220%22%2F%3E%3CmxCell%20id%3D%221%22%20parent%3D%220%22%2F%3E%3CmxCell%20id%3D%222%22%20value%3D%224.%20Publish%20Request%22%20style%3D%22html%3D1%3BverticalAlign%3Dbottom%3BendArrow%3Dblock%3BedgeStyle%3DelbowEdgeStyle%3Belbow%3Dvertical%3Bcurved%3D0%3Brounded%3D0%3B%22%20edge%3D%221%22%20parent%3D%221%22%3E%3CmxGeometry%20x%3D%220.6025%22%20relative%3D%221%22%20as%3D%22geometry%22%3E%3CmxPoint%20x%3D%22289%22%20y%3D%22240%22%20as%3D%22sourcePoint%22%2F%3E%3CArray%20as%3D%22points%22%3E%3CmxPoint%20x%3D%22405%22%20y%3D%22240%22%2F%3E%3C%2FArray%3E%3CmxPoint%20x%3D%22690%22%20y%3D%22240%22%20as%3D%22targetPoint%22%2F%3E%3CmxPoint%20as%3D%22offset%22%2F%3E%3C%2FmxGeometry%3E%3C%2FmxCell%3E%3C%2Froot%3E%3C%2FmxGraphModel%3E&lt;/span&gt;" style="html=1;verticalAlign=bottom;endArrow=block;edgeStyle=elbowEdgeStyle;elbow=vertical;curved=0;rounded=0;labelBackgroundColor=none;strokeColor=#A8201A;fontColor=#000066;" parent="1" edge="1">
          <mxGeometry x="0.4988" relative="1" as="geometry">
            <mxPoint x="289.5" y="1360" as="sourcePoint" />
            <Array as="points">
              <mxPoint x="405.5" y="1360" />
            </Array>
            <mxPoint x="690.5" y="1360" as="targetPoint" />
            <mxPoint x="1" as="offset" />
          </mxGeometry>
        </mxCell>
        <mxCell id="z6V5hL2RsmiHNQm-knUj-85" value="27.&lt;span style=&quot;font-family: monospace; font-size: 0px; text-align: start; background-color: rgb(236, 236, 236);&quot;&gt;%3CmxGraphModel%3E%3Croot%3E%3CmxCell%20id%3D%220%22%2F%3E%3CmxCell%20id%3D%221%22%20parent%3D%220%22%2F%3E%3CmxCell%20id%3D%222%22%20value%3D%224.%20Publish%20Request%22%20style%3D%22html%3D1%3BverticalAlign%3Dbottom%3BendArrow%3Dblock%3BedgeStyle%3DelbowEdgeStyle%3Belbow%3Dvertical%3Bcurved%3D0%3Brounded%3D0%3B%22%20edge%3D%221%22%20parent%3D%221%22%3E%3CmxGeometry%20x%3D%220.6025%22%20relative%3D%221%22%20as%3D%22geometry%22%3E%3CmxPoint%20x%3D%22289%22%20y%3D%22240%22%20as%3D%22sourcePoint%22%2F%3E%3CArray%20as%3D%22points%22%3E%3CmxPoint%20x%3D%22405%22%20y%3D%22240%22%2F%3E%3C%2FArray%3E%3CmxPoint%20x%3D%22690%22%20y%3D%22240%22%20as%3D%22targetPoint%22%2F%3E%3CmxPoint%20as%3D%22offset%22%2F%3E%3C%2FmxGeometry%3E%3C%2FmxCell%3E%3C%2Froot%3E%3C%2FmxGraphModel%3E&lt;/span&gt;&amp;nbsp;Recommend Similar Projects&lt;span style=&quot;font-family: monospace; font-size: 0px; text-align: start; background-color: rgb(236, 236, 236);&quot;&gt;%3CmxGraphModel%3E%3Croot%3E%3CmxCell%20id%3D%220%22%2F%3E%3CmxCell%20id%3D%221%22%20parent%3D%220%22%2F%3E%3CmxCell%20id%3D%222%22%20value%3D%224.%20Publish%20Request%22%20style%3D%22html%3D1%3BverticalAlign%3Dbottom%3BendArrow%3Dblock%3BedgeStyle%3DelbowEdgeStyle%3Belbow%3Dvertical%3Bcurved%3D0%3Brounded%3D0%3B%22%20edge%3D%221%22%20parent%3D%221%22%3E%3CmxGeometry%20x%3D%220.6025%22%20relative%3D%221%22%20as%3D%22geometry%22%3E%3CmxPoint%20x%3D%22289%22%20y%3D%22240%22%20as%3D%22sourcePoint%22%2F%3E%3CArray%20as%3D%22points%22%3E%3CmxPoint%20x%3D%22405%22%20y%3D%22240%22%2F%3E%3C%2FArray%3E%3CmxPoint%20x%3D%22690%22%20y%3D%22240%22%20as%3D%22targetPoint%22%2F%3E%3CmxPoint%20as%3D%22offset%22%2F%3E%3C%2FmxGeometry%3E%3C%2FmxCell%3E%3C%2Froot%3E%3C%2FmxGraphModel%3E&lt;/span&gt;&lt;span style=&quot;font-family: monospace; font-size: 0px; text-align: start; background-color: rgb(236, 236, 236);&quot;&gt;%3CmxGraphModel%3E%3Croot%3E%3CmxCell%20id%3D%220%22%2F%3E%3CmxCell%20id%3D%221%22%20parent%3D%220%22%2F%3E%3CmxCell%20id%3D%222%22%20value%3D%224.%20Publish%20Request%22%20style%3D%22html%3D1%3BverticalAlign%3Dbottom%3BendArrow%3Dblock%3BedgeStyle%3DelbowEdgeStyle%3Belbow%3Dvertical%3Bcurved%3D0%3Brounded%3D0%3B%22%20edge%3D%221%22%20parent%3D%221%22%3E%3CmxGeometry%20x%3D%220.6025%22%20relative%3D%221%22%20as%3D%22geometry%22%3E%3CmxPoint%20x%3D%22289%22%20y%3D%22240%22%20as%3D%22sourcePoint%22%2F%3E%3CArray%20as%3D%22points%22%3E%3CmxPoint%20x%3D%22405%22%20y%3D%22240%22%2F%3E%3C%2FArray%3E%3CmxPoint%20x%3D%22690%22%20y%3D%22240%22%20as%3D%22targetPoint%22%2F%3E%3CmxPoint%20as%3D%22offset%22%2F%3E%3C%2FmxGeometry%3E%3C%2FmxCell%3E%3C%2Froot%3E%3C%2FmxGraphModel%3E&lt;/span&gt;" style="html=1;verticalAlign=bottom;endArrow=block;edgeStyle=elbowEdgeStyle;elbow=vertical;curved=0;rounded=0;labelBackgroundColor=none;strokeColor=#A8201A;fontColor=#000066;" parent="1" target="z6V5hL2RsmiHNQm-knUj-20" edge="1">
          <mxGeometry x="0.821" relative="1" as="geometry">
            <mxPoint x="289.5" y="1410" as="sourcePoint" />
            <Array as="points">
              <mxPoint x="405.5" y="1410" />
            </Array>
            <mxPoint x="690.5" y="1410" as="targetPoint" />
            <mxPoint as="offset" />
          </mxGeometry>
        </mxCell>
        <mxCell id="z6V5hL2RsmiHNQm-knUj-87" value="28.&amp;nbsp;Submit Feedback" style="html=1;verticalAlign=bottom;endArrow=block;edgeStyle=elbowEdgeStyle;elbow=vertical;curved=0;rounded=0;labelBackgroundColor=none;strokeColor=#A8201A;fontColor=#000066;" parent="1" target="aM9ryv3xv72pqoxQDRHE-5" edge="1">
          <mxGeometry relative="1" as="geometry">
            <mxPoint x="90" y="1490" as="sourcePoint" />
            <Array as="points">
              <mxPoint x="175" y="1490" />
            </Array>
            <mxPoint x="285" y="1490" as="targetPoint" />
          </mxGeometry>
        </mxCell>
        <mxCell id="z6V5hL2RsmiHNQm-knUj-88" value="29.&amp;nbsp;Update Reputation Score" style="html=1;verticalAlign=bottom;endArrow=block;edgeStyle=elbowEdgeStyle;elbow=vertical;curved=0;rounded=0;labelBackgroundColor=none;strokeColor=#A8201A;fontColor=#000066;" parent="1" edge="1">
          <mxGeometry x="0.4988" relative="1" as="geometry">
            <mxPoint x="289.5" y="1520" as="sourcePoint" />
            <Array as="points">
              <mxPoint x="405.5" y="1520" />
            </Array>
            <mxPoint x="690.5" y="1520" as="targetPoint" />
            <mxPoint x="1" as="offset" />
          </mxGeometry>
        </mxCell>
        <mxCell id="z6V5hL2RsmiHNQm-knUj-92" value="30. Update Reputation Score" style="html=1;verticalAlign=bottom;endArrow=block;edgeStyle=elbowEdgeStyle;elbow=vertical;curved=0;rounded=0;labelBackgroundColor=none;strokeColor=#A8201A;fontColor=#000066;" parent="1" edge="1">
          <mxGeometry x="0.821" relative="1" as="geometry">
            <mxPoint x="290" y="1570" as="sourcePoint" />
            <Array as="points">
              <mxPoint x="406" y="1570" />
            </Array>
            <mxPoint x="1290.5" y="1570" as="targetPoint" />
            <mxPoint as="offset" />
          </mxGeometry>
        </mxCell>
        <mxCell id="z6V5hL2RsmiHNQm-knUj-94" value="" style="endArrow=classic;html=1;rounded=0;labelBackgroundColor=none;strokeColor=#A8201A;fontColor=#000066;" parent="1" source="z6V5hL2RsmiHNQm-knUj-28" edge="1">
          <mxGeometry width="50" height="50" relative="1" as="geometry">
            <mxPoint x="1890" y="1624.5" as="sourcePoint" />
            <mxPoint x="290" y="1624.5" as="targetPoint" />
          </mxGeometry>
        </mxCell>
        <mxCell id="z6V5hL2RsmiHNQm-knUj-95" value="31. Monitor &amp;amp; Maintain System" style="text;html=1;align=center;verticalAlign=middle;resizable=0;points=[];autosize=1;strokeColor=none;fillColor=none;labelBackgroundColor=none;fontColor=#000066;" parent="1" vertex="1">
          <mxGeometry x="295" y="1598" width="190" height="30" as="geometry" />
        </mxCell>
        <mxCell id="z6V5hL2RsmiHNQm-knUj-96" value="&lt;b&gt;&lt;font style=&quot;font-size: 20px;&quot;&gt;Robo Hatch Lifecycle&lt;/font&gt;&lt;/b&gt;" style="shape=umlFrame;whiteSpace=wrap;html=1;pointerEvents=0;width=220;height=70;labelBackgroundColor=none;fillColor=#FAE5C7;strokeColor=#0F8B8D;fontColor=#000066;" parent="1" vertex="1">
          <mxGeometry x="-30" y="-70" width="2470" height="1910" as="geometry" />
        </mxCell>
      </root>
    </mxGraphModel>
  </diagram>
</mxfile>
